<?xml version="1.0" encoding="utf-8"?>
<!-- Generator: Adobe Illustrator 15.1.0, SVG Export Plug-In . SVG Version: 6.00 Build 0)  -->
<!DOCTYPE svg PUBLIC "-//W3C//DTD SVG 1.1//EN" "http://www.w3.org/Graphics/SVG/1.1/DTD/svg11.dtd">
<svg version="1.1" id="Calque_1" xmlns="http://www.w3.org/2000/svg" xmlns:xlink="http://www.w3.org/1999/xlink" x="0px" y="0px"
	 width="17.75px" height="17.593px" viewBox="0 0 17.75 17.593" enable-background="new 0 0 17.75 17.593" xml:space="preserve">
<g>
	<g>
		<path fill-rule="evenodd" clip-rule="evenodd" fill="#414042" d="M11.248,17.241c-0.442-0.165,0.043-2.592-0.255-3.625
			c-0.105-0.363-0.32-0.569-0.408-0.818c2.729-0.007,4.801-2.79,3.728-5.667c-0.16-0.428-0.413-0.707-0.663-1.125
			c0.239-0.664,0.199-1.789-0.154-2.297c-0.982-0.096-1.696,0.516-2.399,0.867c-1.25-0.333-3.147-0.354-4.394,0
			c-0.756-0.348-1.338-0.873-2.398-0.92c-0.39,0.507-0.47,1.714-0.154,2.35C3.7,6.578,3.318,7.159,3.231,7.998
			c-0.295,2.854,1.406,4.588,3.881,4.8c0.051,0.213-0.425,0.763-0.46,1.227c-2.327,1.159-2.356-2.065-4.29-1.583
			c0.188,0.473,0.668,0.591,0.972,1.02c0.231,0.332,0.323,0.753,0.561,1.073c0.522,0.702,1.502,0.955,2.706,0.665
			c0.065,0.555,0.273,1.937-0.051,1.992c-0.613,0.302-1.945-0.535-2.655-1.022c-2.134-1.463-4.081-4.144-3.88-7.763
			c0.245-4.457,3.655-8.031,8.067-8.375c3.136-0.244,5.477,0.982,7.099,2.605c1.58,1.58,2.723,3.777,2.553,6.843
			c-0.172,3.111-1.903,5.43-3.981,6.792C13.07,16.716,11.75,17.467,11.248,17.241z"/>
		<path fill-rule="evenodd" clip-rule="evenodd" fill="#414042" d="M3.383,12.748c-0.105,0.111-0.165-0.007-0.255-0.052
			C3.133,12.545,3.432,12.561,3.383,12.748z"/>
		<path fill-rule="evenodd" clip-rule="evenodd" fill="#414042" d="M3.741,13.155c-0.166,0.014-0.246-0.06-0.256-0.202
			C3.594,12.851,3.801,12.936,3.741,13.155z"/>
		<path fill-rule="evenodd" clip-rule="evenodd" fill="#414042" d="M3.844,13.36c0.237-0.051,0.285,0.089,0.254,0.306
			C3.896,13.683,3.823,13.569,3.844,13.36z"/>
		<path fill-rule="evenodd" clip-rule="evenodd" fill="#414042" d="M4.557,14.177c-0.196,0.012-0.292-0.081-0.307-0.254
			C4.429,13.783,4.688,13.992,4.557,14.177z"/>
		<path fill-rule="evenodd" clip-rule="evenodd" fill="#414042" d="M5.221,14.483c-0.157,0.072-0.382,0.044-0.357-0.204
			C4.993,14.177,5.267,14.257,5.221,14.483z"/>
		<path fill-rule="evenodd" clip-rule="evenodd" fill="#414042" d="M6.6,14.382c0.049,0.207-0.275,0.177-0.357,0.102
			C6.204,14.287,6.555,14.188,6.6,14.382z"/>
		<path fill-rule="evenodd" clip-rule="evenodd" fill="#414042" d="M5.936,14.483c0.01,0.199-0.307,0.182-0.356,0.051
			C5.52,14.324,5.936,14.33,5.936,14.483z"/>
	</g>
</g>
</svg>
