<?xml version="1.0" encoding="utf-8"?>
<!-- Generator: Adobe Illustrator 15.1.0, SVG Export Plug-In . SVG Version: 6.00 Build 0)  -->
<!DOCTYPE svg PUBLIC "-//W3C//DTD SVG 1.1//EN" "http://www.w3.org/Graphics/SVG/1.1/DTD/svg11.dtd">
<svg version="1.1" id="Calque_1" xmlns="http://www.w3.org/2000/svg" xmlns:xlink="http://www.w3.org/1999/xlink" x="0px" y="0px"
	 width="17.75px" height="17.797px" viewBox="0 0 17.75 17.797" enable-background="new 0 0 17.75 17.797" xml:space="preserve">
<linearGradient id="SVGID_1_" gradientUnits="userSpaceOnUse" x1="8.8984" y1="0.0303" x2="8.8984" y2="17.8276">
	<stop  offset="0" style="stop-color:#009444"/>
	<stop  offset="1" style="stop-color:#006838"/>
</linearGradient>
<path fill="url(#SVGID_1_)" d="M8.9,0C3.985,0,0,3.983,0,8.897c0,4.916,3.984,8.899,8.899,8.899c4.914,0,8.897-3.983,8.897-8.899
	C17.797,3.983,13.814,0,8.9,0z M6.577,13.278H4.433V6.864h2.144V13.278z M5.491,6.057c-0.663,0-1.201-0.508-1.201-1.133
	c0-0.627,0.538-1.135,1.201-1.135c0.665,0,1.202,0.508,1.202,1.135C6.693,5.549,6.156,6.057,5.491,6.057z M12.051,13.278
	l0.014-3.703c0,0-0.043-1.039-0.825-1.144C10.291,8.305,9.974,9,9.874,9.375v3.903h-2.13V6.874h2.13v0.867
	c0.285-0.452,1.027-1.271,2.566-0.919c1.788,0.409,1.769,2.416,1.769,2.416l0.065,4.04H12.051z"/>
</svg>
