<?xml version="1.0" encoding="utf-8"?>
<!-- Generator: Adobe Illustrator 15.1.0, SVG Export Plug-In . SVG Version: 6.00 Build 0)  -->
<!DOCTYPE svg PUBLIC "-//W3C//DTD SVG 1.1//EN" "http://www.w3.org/Graphics/SVG/1.1/DTD/svg11.dtd">
<svg version="1.1" id="Calque_1" xmlns="http://www.w3.org/2000/svg" xmlns:xlink="http://www.w3.org/1999/xlink" x="0px" y="0px"
	 width="255.195px" height="126.942px" viewBox="0 0 255.195 126.942" enable-background="new 0 0 255.195 126.942"
	 xml:space="preserve">
<path fill="#FFFFFF" d="M136.696,0l-0.006,0.139c-31.293,0.003-57.425,16.335-65.019,46.392l-0.054-0.003
	c-4.206,14.048-14.594,51.402-14.594,51.402h-0.548c-2.924-15.323-6.764-29.187-10.967-43.965l-14.986-52H0l39.478,122.975h32.535
	l7.815-22.929c10.393,15.295,28.522,24.93,54.125,24.93c14.804,0,22.596-1.416,27.535-3.786l-0.119-23.395
	c-5.667,2.376-14.807,4.013-23.39,4.013c-24.679,0-39.298-15.506-39.298-40.14c0-27.365,15.239-40.492,37.173-40.492h57.93v104.095
	h27.783V23.142h33.627V0H136.696z"/>
</svg>
