<?xml version="1.0" encoding="utf-8"?>
<!-- Generator: Adobe Illustrator 15.1.0, SVG Export Plug-In . SVG Version: 6.00 Build 0)  -->
<!DOCTYPE svg PUBLIC "-//W3C//DTD SVG 1.1//EN" "http://www.w3.org/Graphics/SVG/1.1/DTD/svg11.dtd">
<svg version="1.1" id="Calque_1" xmlns="http://www.w3.org/2000/svg" xmlns:xlink="http://www.w3.org/1999/xlink" x="0px" y="0px"
	 width="255.195px" height="126.941px" viewBox="0 0 255.195 126.941" enable-background="new 0 0 255.195 126.941"
	 xml:space="preserve">
<linearGradient id="SVGID_1_" gradientUnits="userSpaceOnUse" x1="127.5969" y1="125.9709" x2="127.5969" y2="-1.6065">
	<stop  offset="0" style="stop-color:#58595B"/>
	<stop  offset="1" style="stop-color:#414042"/>
</linearGradient>
<path fill="url(#SVGID_1_)" d="M136.696,0l-0.006,0.139c-31.293,0.003-57.425,16.335-65.02,46.393l-0.054-0.004
	C67.411,60.576,57.023,97.93,57.023,97.93h-0.548c-2.925-15.323-6.765-29.187-10.968-43.965l-14.985-52H0L39.478,124.94h32.535
	l7.814-22.929c10.394,15.295,28.522,24.93,54.125,24.93c14.804,0,22.596-1.416,27.535-3.786l-0.119-23.395
	c-5.667,2.376-14.807,4.013-23.39,4.013c-24.68,0-39.298-15.506-39.298-40.14c0-27.365,15.238-40.492,37.173-40.492h57.93v104.095
	h27.783V23.142h33.627V0H136.696z"/>
</svg>
